<mxfile host="app.diagrams.net" modified="2020-09-20T04:14:35.913Z" agent="5.0 (Windows NT 10.0; Win64; x64) AppleWebKit/537.36 (KHTML, like Gecko) Chrome/79.0.3945.117 Safari/537.36" etag="bgbzicZxuzG9TAlwvCnW" version="13.7.3" type="github">
  <diagram id="UllkI3ypj0Mlm9RMfmXD" name="第 1 页">
    <mxGraphModel dx="868" dy="449" grid="1" gridSize="10" guides="1" tooltips="1" connect="1" arrows="1" fold="1" page="1" pageScale="1" pageWidth="827" pageHeight="1169" math="0" shadow="0">
      <root>
        <mxCell id="0" />
        <mxCell id="1" parent="0" />
        <mxCell id="pasJFCKsH6dyvnOZzvLt-3" value="" style="edgeStyle=orthogonalEdgeStyle;rounded=0;orthogonalLoop=1;jettySize=auto;html=1;strokeWidth=2;" edge="1" parent="1" source="6OzRGNvI4779vGjQ4yT8-1" target="pasJFCKsH6dyvnOZzvLt-1">
          <mxGeometry relative="1" as="geometry" />
        </mxCell>
        <mxCell id="6OzRGNvI4779vGjQ4yT8-1" value="&lt;font style=&quot;font-size: 16px&quot; color=&quot;#595959&quot;&gt;&lt;b&gt;socket()&lt;br&gt;创建套接字&lt;/b&gt;&lt;/font&gt;" style="rounded=1;whiteSpace=wrap;html=1;strokeWidth=2;shadow=1;glass=0;sketch=0;" parent="1" vertex="1">
          <mxGeometry x="440" y="80" width="120" height="60" as="geometry" />
        </mxCell>
        <mxCell id="pasJFCKsH6dyvnOZzvLt-4" value="" style="edgeStyle=orthogonalEdgeStyle;rounded=0;orthogonalLoop=1;jettySize=auto;html=1;strokeWidth=2;" edge="1" parent="1" source="pasJFCKsH6dyvnOZzvLt-1" target="pasJFCKsH6dyvnOZzvLt-2">
          <mxGeometry relative="1" as="geometry" />
        </mxCell>
        <mxCell id="pasJFCKsH6dyvnOZzvLt-1" value="&lt;font style=&quot;font-size: 16px&quot; color=&quot;#595959&quot;&gt;&lt;b&gt;bind()&lt;br&gt;绑定套接字&lt;/b&gt;&lt;/font&gt;" style="rounded=1;whiteSpace=wrap;html=1;strokeWidth=2;shadow=1;glass=0;sketch=0;" vertex="1" parent="1">
          <mxGeometry x="440" y="160" width="120" height="60" as="geometry" />
        </mxCell>
        <mxCell id="pasJFCKsH6dyvnOZzvLt-6" value="" style="edgeStyle=orthogonalEdgeStyle;rounded=0;orthogonalLoop=1;jettySize=auto;html=1;strokeWidth=2;" edge="1" parent="1" source="pasJFCKsH6dyvnOZzvLt-2" target="pasJFCKsH6dyvnOZzvLt-5">
          <mxGeometry relative="1" as="geometry" />
        </mxCell>
        <mxCell id="pasJFCKsH6dyvnOZzvLt-2" value="&lt;font style=&quot;font-size: 16px&quot; color=&quot;#595959&quot;&gt;&lt;b&gt;listen()&lt;br&gt;监听套接字&lt;/b&gt;&lt;/font&gt;" style="rounded=1;whiteSpace=wrap;html=1;strokeWidth=2;shadow=1;glass=0;sketch=0;" vertex="1" parent="1">
          <mxGeometry x="440" y="240" width="120" height="60" as="geometry" />
        </mxCell>
        <mxCell id="pasJFCKsH6dyvnOZzvLt-10" value="" style="edgeStyle=orthogonalEdgeStyle;rounded=0;orthogonalLoop=1;jettySize=auto;html=1;strokeWidth=2;" edge="1" parent="1" source="pasJFCKsH6dyvnOZzvLt-5" target="pasJFCKsH6dyvnOZzvLt-7">
          <mxGeometry relative="1" as="geometry" />
        </mxCell>
        <mxCell id="pasJFCKsH6dyvnOZzvLt-5" value="&lt;font style=&quot;font-size: 16px&quot; color=&quot;#595959&quot;&gt;&lt;b&gt;accept()&lt;br&gt;连接套接字&lt;/b&gt;&lt;/font&gt;" style="rounded=1;whiteSpace=wrap;html=1;strokeWidth=2;shadow=1;glass=0;sketch=0;" vertex="1" parent="1">
          <mxGeometry x="440" y="360" width="120" height="60" as="geometry" />
        </mxCell>
        <mxCell id="pasJFCKsH6dyvnOZzvLt-11" value="" style="edgeStyle=orthogonalEdgeStyle;rounded=0;orthogonalLoop=1;jettySize=auto;html=1;strokeWidth=2;" edge="1" parent="1" source="pasJFCKsH6dyvnOZzvLt-7" target="pasJFCKsH6dyvnOZzvLt-8">
          <mxGeometry relative="1" as="geometry" />
        </mxCell>
        <mxCell id="pasJFCKsH6dyvnOZzvLt-7" value="&lt;font color=&quot;#595959&quot;&gt;&lt;span style=&quot;font-size: 16px&quot;&gt;&lt;b&gt;read()&lt;/b&gt;&lt;/span&gt;&lt;/font&gt;" style="rounded=1;whiteSpace=wrap;html=1;strokeWidth=2;shadow=1;glass=0;sketch=0;" vertex="1" parent="1">
          <mxGeometry x="440" y="470" width="120" height="60" as="geometry" />
        </mxCell>
        <mxCell id="pasJFCKsH6dyvnOZzvLt-12" value="" style="edgeStyle=orthogonalEdgeStyle;rounded=0;orthogonalLoop=1;jettySize=auto;html=1;strokeWidth=2;" edge="1" parent="1" source="pasJFCKsH6dyvnOZzvLt-8" target="pasJFCKsH6dyvnOZzvLt-9">
          <mxGeometry relative="1" as="geometry" />
        </mxCell>
        <mxCell id="pasJFCKsH6dyvnOZzvLt-21" style="edgeStyle=orthogonalEdgeStyle;rounded=0;orthogonalLoop=1;jettySize=auto;html=1;entryX=1;entryY=0.5;entryDx=0;entryDy=0;strokeWidth=2;" edge="1" parent="1" source="pasJFCKsH6dyvnOZzvLt-8" target="pasJFCKsH6dyvnOZzvLt-7">
          <mxGeometry relative="1" as="geometry">
            <Array as="points">
              <mxPoint x="580" y="605" />
              <mxPoint x="580" y="500" />
            </Array>
          </mxGeometry>
        </mxCell>
        <mxCell id="pasJFCKsH6dyvnOZzvLt-26" style="edgeStyle=orthogonalEdgeStyle;rounded=0;orthogonalLoop=1;jettySize=auto;html=1;strokeWidth=2;" edge="1" parent="1" source="pasJFCKsH6dyvnOZzvLt-8" target="pasJFCKsH6dyvnOZzvLt-16">
          <mxGeometry relative="1" as="geometry" />
        </mxCell>
        <mxCell id="pasJFCKsH6dyvnOZzvLt-8" value="&lt;font color=&quot;#595959&quot;&gt;&lt;span style=&quot;font-size: 16px&quot;&gt;&lt;b&gt;write()&lt;/b&gt;&lt;/span&gt;&lt;/font&gt;" style="rounded=1;whiteSpace=wrap;html=1;strokeWidth=2;shadow=1;glass=0;sketch=0;" vertex="1" parent="1">
          <mxGeometry x="440" y="575" width="120" height="60" as="geometry" />
        </mxCell>
        <mxCell id="pasJFCKsH6dyvnOZzvLt-31" style="edgeStyle=none;rounded=0;orthogonalLoop=1;jettySize=auto;html=1;entryX=1;entryY=0.5;entryDx=0;entryDy=0;strokeWidth=2;dashed=1;" edge="1" parent="1" source="pasJFCKsH6dyvnOZzvLt-9" target="pasJFCKsH6dyvnOZzvLt-17">
          <mxGeometry relative="1" as="geometry" />
        </mxCell>
        <mxCell id="pasJFCKsH6dyvnOZzvLt-9" value="&lt;font color=&quot;#595959&quot;&gt;&lt;span style=&quot;font-size: 16px&quot;&gt;&lt;b&gt;close()&lt;br&gt;关闭套接字&lt;br&gt;&lt;/b&gt;&lt;/span&gt;&lt;/font&gt;" style="rounded=1;whiteSpace=wrap;html=1;strokeWidth=2;shadow=1;glass=0;sketch=0;" vertex="1" parent="1">
          <mxGeometry x="440" y="740" width="120" height="60" as="geometry" />
        </mxCell>
        <mxCell id="pasJFCKsH6dyvnOZzvLt-18" value="" style="edgeStyle=orthogonalEdgeStyle;rounded=0;orthogonalLoop=1;jettySize=auto;html=1;strokeWidth=2;" edge="1" parent="1" source="pasJFCKsH6dyvnOZzvLt-13" target="pasJFCKsH6dyvnOZzvLt-14">
          <mxGeometry relative="1" as="geometry" />
        </mxCell>
        <mxCell id="pasJFCKsH6dyvnOZzvLt-13" value="&lt;font style=&quot;font-size: 16px&quot; color=&quot;#595959&quot;&gt;&lt;b&gt;socket()&lt;br&gt;创建套接字&lt;/b&gt;&lt;/font&gt;" style="rounded=1;whiteSpace=wrap;html=1;strokeWidth=2;shadow=1;glass=0;sketch=0;" vertex="1" parent="1">
          <mxGeometry x="100" y="80" width="120" height="60" as="geometry" />
        </mxCell>
        <mxCell id="pasJFCKsH6dyvnOZzvLt-19" style="rounded=0;orthogonalLoop=1;jettySize=auto;html=1;strokeWidth=2;" edge="1" parent="1" source="pasJFCKsH6dyvnOZzvLt-14">
          <mxGeometry relative="1" as="geometry">
            <mxPoint x="500" y="330" as="targetPoint" />
          </mxGeometry>
        </mxCell>
        <mxCell id="pasJFCKsH6dyvnOZzvLt-20" value="&lt;font style=&quot;font-size: 16px&quot; color=&quot;#595959&quot;&gt;&lt;b&gt;三次握手后建立连接&lt;/b&gt;&lt;/font&gt;" style="edgeLabel;html=1;align=center;verticalAlign=middle;resizable=0;points=[];rotation=10;" vertex="1" connectable="0" parent="pasJFCKsH6dyvnOZzvLt-19">
          <mxGeometry x="-0.2091" y="1" relative="1" as="geometry">
            <mxPoint x="11.8" y="2" as="offset" />
          </mxGeometry>
        </mxCell>
        <mxCell id="pasJFCKsH6dyvnOZzvLt-28" style="rounded=0;orthogonalLoop=1;jettySize=auto;html=1;strokeWidth=2;" edge="1" parent="1" source="pasJFCKsH6dyvnOZzvLt-14" target="pasJFCKsH6dyvnOZzvLt-15">
          <mxGeometry relative="1" as="geometry" />
        </mxCell>
        <mxCell id="pasJFCKsH6dyvnOZzvLt-14" value="&lt;font style=&quot;font-size: 16px&quot; color=&quot;#595959&quot;&gt;&lt;b&gt;connect()&lt;br&gt;连接套接字&lt;/b&gt;&lt;/font&gt;" style="rounded=1;whiteSpace=wrap;html=1;strokeWidth=2;shadow=1;glass=0;sketch=0;" vertex="1" parent="1">
          <mxGeometry x="100" y="240" width="120" height="60" as="geometry" />
        </mxCell>
        <mxCell id="pasJFCKsH6dyvnOZzvLt-23" value="" style="edgeStyle=orthogonalEdgeStyle;rounded=0;orthogonalLoop=1;jettySize=auto;html=1;strokeWidth=2;" edge="1" parent="1" source="pasJFCKsH6dyvnOZzvLt-15" target="pasJFCKsH6dyvnOZzvLt-16">
          <mxGeometry relative="1" as="geometry" />
        </mxCell>
        <mxCell id="pasJFCKsH6dyvnOZzvLt-25" style="edgeStyle=orthogonalEdgeStyle;rounded=0;orthogonalLoop=1;jettySize=auto;html=1;entryX=0;entryY=0.5;entryDx=0;entryDy=0;strokeWidth=2;" edge="1" parent="1" source="pasJFCKsH6dyvnOZzvLt-15" target="pasJFCKsH6dyvnOZzvLt-7">
          <mxGeometry relative="1" as="geometry" />
        </mxCell>
        <mxCell id="pasJFCKsH6dyvnOZzvLt-15" value="&lt;font color=&quot;#595959&quot;&gt;&lt;span style=&quot;font-size: 16px&quot;&gt;&lt;b&gt;write()&lt;/b&gt;&lt;/span&gt;&lt;/font&gt;" style="rounded=1;whiteSpace=wrap;html=1;strokeWidth=2;shadow=1;glass=0;sketch=0;" vertex="1" parent="1">
          <mxGeometry x="100" y="470" width="120" height="60" as="geometry" />
        </mxCell>
        <mxCell id="pasJFCKsH6dyvnOZzvLt-24" style="edgeStyle=orthogonalEdgeStyle;rounded=0;orthogonalLoop=1;jettySize=auto;html=1;entryX=0;entryY=0.5;entryDx=0;entryDy=0;strokeWidth=2;" edge="1" parent="1" source="pasJFCKsH6dyvnOZzvLt-16" target="pasJFCKsH6dyvnOZzvLt-15">
          <mxGeometry relative="1" as="geometry">
            <Array as="points">
              <mxPoint x="80" y="605" />
              <mxPoint x="80" y="500" />
            </Array>
          </mxGeometry>
        </mxCell>
        <mxCell id="pasJFCKsH6dyvnOZzvLt-29" value="" style="edgeStyle=none;rounded=0;orthogonalLoop=1;jettySize=auto;html=1;strokeWidth=2;" edge="1" parent="1" source="pasJFCKsH6dyvnOZzvLt-16" target="pasJFCKsH6dyvnOZzvLt-17">
          <mxGeometry relative="1" as="geometry" />
        </mxCell>
        <mxCell id="pasJFCKsH6dyvnOZzvLt-16" value="&lt;font color=&quot;#595959&quot;&gt;&lt;span style=&quot;font-size: 16px&quot;&gt;&lt;b&gt;read()&lt;/b&gt;&lt;/span&gt;&lt;/font&gt;" style="rounded=1;whiteSpace=wrap;html=1;strokeWidth=2;shadow=1;glass=0;sketch=0;" vertex="1" parent="1">
          <mxGeometry x="100" y="575" width="120" height="60" as="geometry" />
        </mxCell>
        <mxCell id="pasJFCKsH6dyvnOZzvLt-30" style="edgeStyle=none;rounded=0;orthogonalLoop=1;jettySize=auto;html=1;entryX=0;entryY=0.5;entryDx=0;entryDy=0;strokeWidth=2;dashed=1;" edge="1" parent="1">
          <mxGeometry relative="1" as="geometry">
            <mxPoint x="220" y="770" as="sourcePoint" />
            <mxPoint x="440" y="770" as="targetPoint" />
          </mxGeometry>
        </mxCell>
        <mxCell id="pasJFCKsH6dyvnOZzvLt-32" value="&lt;font style=&quot;font-size: 16px&quot; color=&quot;#595959&quot;&gt;&lt;b&gt;四次握手后断开&lt;/b&gt;&lt;/font&gt;" style="edgeLabel;html=1;align=center;verticalAlign=middle;resizable=0;points=[];" vertex="1" connectable="0" parent="pasJFCKsH6dyvnOZzvLt-30">
          <mxGeometry x="-0.1818" relative="1" as="geometry">
            <mxPoint x="20" as="offset" />
          </mxGeometry>
        </mxCell>
        <mxCell id="pasJFCKsH6dyvnOZzvLt-17" value="&lt;font color=&quot;#595959&quot;&gt;&lt;span style=&quot;font-size: 16px&quot;&gt;&lt;b&gt;close()&lt;br&gt;关闭套接字&lt;br&gt;&lt;/b&gt;&lt;/span&gt;&lt;/font&gt;" style="rounded=1;whiteSpace=wrap;html=1;strokeWidth=2;shadow=1;glass=0;sketch=0;" vertex="1" parent="1">
          <mxGeometry x="100" y="740" width="120" height="60" as="geometry" />
        </mxCell>
        <mxCell id="pasJFCKsH6dyvnOZzvLt-27" value="&lt;font style=&quot;font-size: 16px&quot; color=&quot;#595959&quot;&gt;&lt;b&gt;IO操作&lt;/b&gt;&lt;/font&gt;" style="text;html=1;strokeColor=none;fillColor=none;align=center;verticalAlign=middle;whiteSpace=wrap;rounded=0;shadow=1;glass=0;sketch=0;" vertex="1" parent="1">
          <mxGeometry x="300" y="540" width="60" height="20" as="geometry" />
        </mxCell>
        <mxCell id="pasJFCKsH6dyvnOZzvLt-33" value="&lt;font style=&quot;font-size: 16px&quot; color=&quot;#595959&quot;&gt;&lt;b&gt;客户端&lt;/b&gt;&lt;/font&gt;" style="text;html=1;strokeColor=none;fillColor=none;align=center;verticalAlign=middle;whiteSpace=wrap;rounded=0;shadow=1;glass=0;sketch=0;" vertex="1" parent="1">
          <mxGeometry x="130" y="20" width="60" height="20" as="geometry" />
        </mxCell>
        <mxCell id="pasJFCKsH6dyvnOZzvLt-34" value="&lt;font style=&quot;font-size: 16px&quot; color=&quot;#595959&quot;&gt;&lt;b&gt;服务端&lt;/b&gt;&lt;/font&gt;" style="text;html=1;strokeColor=none;fillColor=none;align=center;verticalAlign=middle;whiteSpace=wrap;rounded=0;shadow=1;glass=0;sketch=0;" vertex="1" parent="1">
          <mxGeometry x="470" y="20" width="60" height="20" as="geometry" />
        </mxCell>
      </root>
    </mxGraphModel>
  </diagram>
</mxfile>
